<?xml version="1.0" encoding="UTF-8" standalone="no"?>
<svg width="400" height="400" viewBox="0 0 400 400" fill="none" xmlns="http://www.w3.org/2000/svg">
<path d="M0.875 259.649H3.71407V267.273C3.71407 268.482 3.7495 269.267 3.81879 269.626C3.93964 270.2 4.22805 270.662 4.68405 271.012C5.14004 271.361 5.76521 271.534 6.55635 271.534C7.35877 271.534 7.96461 271.371 8.37388 271.039C8.78153 270.709 9.02807 270.306 9.11024 269.826C9.19403 269.346 9.23432 268.551 9.23432 267.436V259.649H12.0718V267.04C12.0718 268.727 11.996 269.919 11.843 270.618C11.6883 271.316 11.4063 271.906 10.9954 272.383C10.5813 272.865 10.0335 273.246 9.34226 273.528C8.65263 273.815 7.75354 273.957 6.64175 273.957C5.30117 273.957 4.28446 273.802 3.59161 273.491C2.89876 273.184 2.35092 272.779 1.9481 272.285C1.54689 271.788 1.28104 271.268 1.15375 270.723C0.968451 269.918 0.875 268.727 0.875 267.153V259.649Z" fill="white"/>
<path d="M21.0234 273.713V259.65H23.7723L29.5519 269.087V259.65H32.1735V273.713H29.3392L23.6466 264.475V273.713H21.0234Z" fill="white"/>
<path d="M41.1328 273.713V259.65H43.9687V273.713H41.1328Z" fill="white"/>
<path d="M57.9362 273.713L52.9219 259.65H55.9978L59.5555 270.063L62.9908 259.65H66.0039L60.9912 273.713H57.9362Z" fill="white"/>
<path d="M74.9688 273.713V259.65H85.3663V262.028H77.8062V265.139H84.8459V267.518H77.8062V271.336H85.6435V273.713H74.9688Z" fill="white"/>
<path d="M97.4312 265.6H99.5275C100.884 265.6 101.735 265.542 102.072 265.426C102.41 265.313 102.674 265.114 102.864 264.832C103.056 264.548 103.153 264.198 103.153 263.775C103.153 263.302 103.026 262.917 102.774 262.626C102.523 262.336 102.167 262.15 101.708 262.075C101.479 262.042 100.789 262.028 99.6419 262.028H97.4312V265.6ZM94.5938 273.713V259.65H100.564C102.065 259.65 103.154 259.775 103.834 260.028C104.516 260.283 105.061 260.731 105.468 261.375C105.878 262.021 106.081 262.761 106.081 263.591C106.081 264.648 105.771 265.518 105.152 266.206C104.534 266.892 103.609 267.326 102.376 267.503C102.989 267.862 103.494 268.257 103.892 268.686C104.29 269.114 104.827 269.876 105.502 270.971L107.217 273.713H103.825L101.785 270.651C101.055 269.559 100.557 268.869 100.288 268.583C100.021 268.299 99.737 268.104 99.4357 267.998C99.136 267.893 98.659 267.838 98.0081 267.838H97.4312V273.713H94.5938Z" fill="white"/>
<path d="M116.18 269.158L118.94 268.882C119.106 269.812 119.444 270.493 119.952 270.927C120.459 271.365 121.146 271.581 122.008 271.581C122.921 271.581 123.611 271.388 124.073 270.999C124.537 270.613 124.768 270.161 124.768 269.639C124.768 269.309 124.671 269.025 124.476 268.792C124.281 268.557 123.941 268.355 123.458 268.183C123.126 268.067 122.37 267.862 121.189 267.566C119.671 267.192 118.606 266.728 117.994 266.177C117.132 265.403 116.702 264.457 116.702 263.346C116.702 262.629 116.903 261.958 117.309 261.335C117.715 260.711 118.299 260.236 119.062 259.909C119.826 259.582 120.746 259.419 121.824 259.419C123.587 259.419 124.913 259.809 125.804 260.584C126.693 261.364 127.162 262.4 127.207 263.699L124.37 263.805C124.249 263.081 123.988 262.559 123.59 262.244C123.192 261.924 122.594 261.767 121.797 261.767C120.975 261.767 120.33 261.936 119.866 262.276C119.565 262.493 119.417 262.785 119.417 263.151C119.417 263.483 119.555 263.769 119.837 264.006C120.193 264.309 121.062 264.622 122.439 264.947C123.816 265.274 124.835 265.611 125.496 265.961C126.157 266.309 126.672 266.784 127.046 267.388C127.418 267.994 127.605 268.74 127.605 269.63C127.605 270.435 127.381 271.191 126.935 271.892C126.487 272.594 125.854 273.118 125.037 273.463C124.218 273.803 123.198 273.974 121.979 273.974C120.203 273.974 118.837 273.563 117.886 272.743C116.932 271.924 116.365 270.729 116.18 269.158Z" fill="white"/>
<path d="M145.454 268.146L143.502 262.93L141.601 268.146H145.454ZM150.656 273.713H147.571L146.351 270.523H140.736L139.572 273.713H136.562L142.031 259.65H145.054L150.656 273.713Z" fill="white"/>
<path d="M159.609 273.713V259.771H162.447V271.336H169.501V273.713H159.609Z" fill="white"/>
<path d="M191.461 273.713V259.65H195.713L198.248 269.243L200.768 259.65H205.018V273.713H202.397L202.387 262.642L199.598 273.713H196.864L194.091 262.642L194.084 273.713H191.461Z" fill="white"/>
<path d="M214.867 259.649H217.705V267.273C217.705 268.482 217.738 269.267 217.809 269.626C217.93 270.2 218.219 270.662 218.675 271.012C219.131 271.361 219.756 271.534 220.545 271.534C221.348 271.534 221.955 271.371 222.364 271.039C222.772 270.709 223.019 270.306 223.099 269.826C223.185 269.346 223.225 268.551 223.225 267.436V259.649H226.062V267.04C226.062 268.727 225.987 269.919 225.832 270.618C225.679 271.316 225.397 271.906 224.984 272.383C224.572 272.865 224.024 273.246 223.333 273.528C222.643 273.815 221.744 273.957 220.632 273.957C219.29 273.957 218.273 273.802 217.582 273.491C216.889 273.184 216.341 272.779 215.939 272.285C215.536 271.788 215.273 271.268 215.144 270.723C214.959 269.918 214.867 268.727 214.867 267.153V259.649Z" fill="white"/>
<path d="M235.914 269.158L238.671 268.882C238.839 269.812 239.177 270.493 239.681 270.927C240.192 271.365 240.878 271.581 241.74 271.581C242.654 271.581 243.342 271.388 243.808 270.999C244.269 270.613 244.501 270.161 244.501 269.639C244.501 269.309 244.402 269.025 244.209 268.792C244.016 268.557 243.676 268.355 243.191 268.183C242.857 268.067 242.101 267.862 240.922 267.566C239.402 267.192 238.337 266.728 237.727 266.177C236.863 265.403 236.435 264.457 236.435 263.346C236.435 262.629 236.636 261.958 237.042 261.335C237.448 260.711 238.03 260.236 238.795 259.909C239.557 259.582 240.479 259.419 241.557 259.419C243.318 259.419 244.646 259.809 245.535 260.584C246.428 261.364 246.895 262.4 246.938 263.699L244.103 263.805C243.98 263.081 243.719 262.559 243.323 262.244C242.923 261.924 242.327 261.767 241.529 261.767C240.708 261.767 240.063 261.936 239.599 262.276C239.298 262.493 239.146 262.785 239.146 263.151C239.146 263.483 239.288 263.769 239.568 264.006C239.926 264.309 240.795 264.622 242.171 264.947C243.55 265.274 244.567 265.611 245.229 265.961C245.889 266.309 246.405 266.784 246.779 267.388C247.151 267.994 247.336 268.74 247.336 269.63C247.336 270.435 247.116 271.191 246.668 271.892C246.22 272.594 245.585 273.118 244.77 273.463C243.95 273.803 242.933 273.974 241.711 273.974C239.934 273.974 238.571 273.563 237.617 272.743C236.663 271.924 236.098 270.729 235.914 269.158Z" fill="white"/>
<path d="M257.188 273.713V259.65H260.025V273.713H257.188Z" fill="white"/>
<path d="M279.345 268.545L282.09 269.404C281.668 270.944 280.966 272.088 279.988 272.837C279.01 273.583 277.766 273.957 276.259 273.957C274.395 273.957 272.866 273.321 271.665 272.044C270.467 270.768 269.867 269.025 269.867 266.813C269.867 264.475 270.468 262.656 271.673 261.36C272.882 260.066 274.464 259.418 276.428 259.418C278.144 259.418 279.538 259.928 280.608 260.943C281.244 261.542 281.725 262.404 282.042 263.527L279.237 264.204C279.072 263.474 278.728 262.899 278.202 262.477C277.677 262.051 277.039 261.84 276.287 261.84C275.25 261.84 274.411 262.216 273.763 262.965C273.119 263.714 272.797 264.927 272.797 266.603C272.797 268.38 273.114 269.649 273.752 270.404C274.388 271.157 275.217 271.534 276.237 271.534C276.991 271.534 277.637 271.295 278.178 270.813C278.72 270.332 279.109 269.576 279.345 268.545Z" fill="white"/>
<path d="M307.959 268.559V266.181H314.079V271.782C313.485 272.359 312.626 272.865 311.496 273.303C310.368 273.74 309.226 273.957 308.069 273.957C306.601 273.957 305.317 273.649 304.226 273.032C303.13 272.417 302.31 271.532 301.761 270.385C301.211 269.236 300.938 267.99 300.938 266.64C300.938 265.177 301.242 263.875 301.856 262.736C302.47 261.6 303.369 260.727 304.55 260.118C305.451 259.652 306.574 259.418 307.914 259.418C309.659 259.418 311.024 259.786 312.002 260.519C312.985 261.252 313.613 262.266 313.897 263.559L311.076 264.082C310.876 263.389 310.504 262.842 309.957 262.444C309.414 262.042 308.733 261.84 307.914 261.84C306.677 261.84 305.692 262.235 304.962 263.023C304.233 263.808 303.865 264.979 303.865 266.524C303.865 268.195 304.236 269.447 304.979 270.282C305.718 271.118 306.687 271.534 307.889 271.534C308.483 271.534 309.079 271.419 309.674 271.184C310.272 270.954 310.784 270.67 311.213 270.338V268.559H307.959Z" fill="white"/>
<path d="M326.172 265.6H328.268C329.625 265.6 330.474 265.542 330.814 265.426C331.151 265.313 331.415 265.114 331.607 264.832C331.798 264.548 331.893 264.198 331.893 263.775C331.893 263.302 331.768 262.917 331.516 262.626C331.263 262.336 330.909 262.15 330.448 262.075C330.219 262.042 329.533 262.028 328.381 262.028H326.172V265.6ZM323.336 273.713V259.65H329.304C330.804 259.65 331.897 259.775 332.577 260.028C333.257 260.283 333.804 260.731 334.209 261.375C334.618 262.021 334.823 262.761 334.823 263.591C334.823 264.648 334.512 265.518 333.895 266.206C333.274 266.892 332.349 267.326 331.118 267.503C331.729 267.862 332.233 268.257 332.633 268.686C333.033 269.114 333.568 269.876 334.244 270.971L335.955 273.713H332.564L330.527 270.651C329.797 269.559 329.298 268.869 329.03 268.583C328.763 268.299 328.479 268.104 328.176 267.998C327.878 267.893 327.4 267.838 326.749 267.838H326.172V273.713H323.336Z" fill="white"/>
<path d="M348.132 266.677C348.132 268.272 348.501 269.479 349.236 270.303C349.971 271.124 350.902 271.534 352.035 271.534C353.166 271.534 354.096 271.126 354.821 270.312C355.548 269.494 355.908 268.272 355.908 266.64C355.908 265.029 355.556 263.827 354.848 263.033C354.143 262.238 353.203 261.84 352.035 261.84C350.864 261.84 349.923 262.243 349.206 263.047C348.49 263.849 348.132 265.061 348.132 266.677ZM345.203 266.774C345.203 265.343 345.416 264.141 345.844 263.17C346.165 262.454 346.6 261.811 347.158 261.242C347.707 260.674 348.315 260.251 348.972 259.974C349.847 259.604 350.857 259.418 352.001 259.418C354.073 259.418 355.731 260.06 356.972 261.347C358.217 262.631 358.838 264.418 358.838 266.706C358.838 268.977 358.221 270.754 356.988 272.035C355.754 273.319 354.105 273.957 352.041 273.957C349.948 273.957 348.287 273.321 347.053 272.044C345.82 270.768 345.203 269.014 345.203 266.774Z" fill="white"/>
<path d="M368.086 259.649H370.922V267.273C370.922 268.482 370.956 269.267 371.028 269.626C371.151 270.2 371.437 270.662 371.893 271.012C372.349 271.361 372.976 271.534 373.766 271.534C374.568 271.534 375.176 271.371 375.585 271.039C375.991 270.709 376.236 270.306 376.318 269.826C376.403 269.346 376.444 268.551 376.444 267.436V259.649H379.279V267.04C379.279 268.727 379.204 269.919 379.049 270.618C378.899 271.316 378.616 271.906 378.203 272.383C377.791 272.865 377.243 273.246 376.552 273.528C375.862 273.815 374.961 273.957 373.851 273.957C372.511 273.957 371.491 273.802 370.798 273.491C370.11 273.184 369.559 272.779 369.159 272.285C368.756 271.788 368.492 271.268 368.363 270.723C368.179 269.918 368.086 268.727 368.086 267.153V259.649Z" fill="white"/>
<path d="M391.377 262.028V266.029H392.923C394.038 266.029 394.781 265.956 395.158 265.81C395.532 265.663 395.828 265.429 396.04 265.115C396.254 264.799 396.36 264.435 396.36 264.019C396.36 263.507 396.21 263.082 395.911 262.748C395.614 262.415 395.234 262.207 394.775 262.121C394.438 262.059 393.758 262.028 392.743 262.028H391.377ZM388.539 273.713V259.65H393.086C394.81 259.65 395.933 259.721 396.455 259.859C397.261 260.07 397.933 260.533 398.477 261.237C399.017 261.944 399.291 262.858 399.291 263.976C399.291 264.838 399.133 265.565 398.822 266.151C398.51 266.741 398.112 267.203 397.63 267.538C397.15 267.875 396.657 268.098 396.16 268.206C395.487 268.341 394.504 268.407 393.223 268.407H391.377V273.713H388.539Z" fill="white"/>
<path fill-rule="evenodd" clip-rule="evenodd" d="M198.829 161.305C199.196 160.816 199.861 161.094 200.361 161.069C201.642 161.285 200.986 160.818 202.008 162.07C203.016 162.814 202.892 161.807 204.13 162.6C205.406 163.807 205.411 163.372 207.014 163.602V163.72L206.779 163.896L206.485 163.955L206.189 164.073L205.955 164.131L205.836 164.19C205.237 163.794 204.428 163.792 203.777 164.073V163.896L203.717 163.72L203.069 163.072L202.833 162.953L202.597 162.895H202.304L202.069 162.835L201.714 162.719L201.302 162.423L200.712 161.952L200.242 161.717L199.829 161.54H199.123L198.887 161.6H198.711V161.482L198.829 161.305Z" fill="white"/>
<path fill-rule="evenodd" clip-rule="evenodd" d="M235.756 198.759L235.579 198.29L235.64 197.818L235.756 197.465L235.814 197.348H205.015L208.431 200.351L208.724 200.469L209.019 200.704L209.314 200.88L209.607 201.116C210.392 201.811 210.699 202.834 210.904 203.827L210.844 204.178L210.669 204.357L210.492 204.65L210.256 205.122L210.137 205.945L210.019 207.241C210.039 208.182 210.148 209.912 209.135 210.481L209.019 210.362H208.959C208.914 212.956 207.97 215.484 206.488 217.606C205.611 218.431 205.477 219.406 206.133 220.373C205.582 220.719 204.812 223.837 204.897 224.322L205.015 224.731L205.19 225.204L205.485 225.556L205.838 225.853L206.309 226.144L206.721 226.204L207.134 226.144L207.311 226.028L207.251 225.909L207.016 225.732L206.84 225.556L206.721 225.32L206.9 225.028L207.37 224.673L208.313 224.201L208.843 223.731L208.959 223.201L208.724 222.79L208.547 222.672H208.666L208.843 222.553L209.314 222.437L209.728 222.2L210.256 221.788L210.785 221.199L211.317 220.373L211.845 219.314L212.493 219.372L213.024 219.256L213.376 219.079L213.788 218.784L214.318 218.431L215.027 218.078L216.028 217.784L217.441 217.371L217.853 217.253L218.145 217.134L218.442 216.959L218.617 216.839L218.678 216.606L218.736 216.427C218.493 214.822 219.073 215.4 220.678 214.485C223.715 212.494 225.267 210.942 227.099 207.889L227.334 207.359L227.687 206.888L228.161 206.476L228.865 206.063L229.69 205.651L230.341 205.415H231.221L231.575 205.533H231.81L232.105 205.357L232.398 205.061L232.99 204.238L233.46 203.59C234.058 202.391 234.015 201.505 234.989 200.351L235.168 200.174L235.344 199.939L235.521 199.761L235.64 199.468L235.814 199.233V198.938L235.756 198.759Z" fill="white"/>
<path fill-rule="evenodd" clip-rule="evenodd" d="M214.202 165.838L214.142 166.074L213.965 166.251H213.493L213.375 165.603H213.613L213.787 165.722H213.965L214.202 165.838Z" fill="white"/>
<path fill-rule="evenodd" clip-rule="evenodd" d="M211.726 165.309C210.624 165.526 209.402 165.449 208.427 166.074C208.239 165.483 207.851 165.609 207.367 165.604L207.602 165.309L207.66 165.016V164.131C209.315 163.427 210.567 165.012 211.726 165.309Z" fill="white"/>
<path fill-rule="evenodd" clip-rule="evenodd" d="M249.896 199.938C232.631 251.667 162.784 252.988 145.656 200.41C163.91 247.171 232.045 246.893 249.896 199.938Z" fill="white"/>
<path fill-rule="evenodd" clip-rule="evenodd" d="M250.008 166.781C242.63 143.292 222.615 127.211 197.651 127.205C171.599 127.181 153.52 141.971 145.531 166.251C152.068 149.278 165.137 138.482 180.001 133.776C179.711 134.317 179.511 134.744 179.511 134.744C179.217 135.273 179.052 135.945 178.571 136.334C177.285 136.911 176.706 138.979 176.096 140.161L175.86 140.633V140.869L175.92 140.927V141.457C175.374 143.173 173.569 144.497 172.739 146.11L172.267 147.112L171.974 147.994L171.737 148.878L171.502 149.526L171.444 149.998L171.384 150.114C172.465 152.185 172.747 154.59 172.386 156.888V156.946L172.444 157.004L172.622 157.122L172.857 157.358L173.152 157.829L173.387 158.301L173.564 158.891L173.8 159.479L174.035 160.127L174.212 160.716L174.447 161.01L174.565 161.069C175.843 159.123 173.324 155.868 173.8 153.59H173.917L174.212 153.354L174.447 153.295C174.681 156.706 176.518 159.743 178.216 162.6L178.04 162.835L177.686 163.365V163.895L178.334 164.073L177.921 165.015H178.334L178.571 165.073H178.864L179.159 165.192L179.511 165.308L179.748 165.545L180.042 165.723L180.514 166.193L181.219 166.723L181.514 166.781L181.75 166.841H192.645C192.998 165.431 193.335 163.936 194.176 162.719H194.118L193.883 162.6H192.822L192.527 162.542L192.233 162.365L192.057 162.187H191.82C191.316 162.461 190.81 164.066 190.467 164.425C190.102 165.607 187.81 165.56 186.815 165.663C185.924 165.872 186.131 165.582 185.52 164.956C185.201 164.377 184.88 163.797 184.518 163.248C182.713 159.358 186.569 153.382 191.172 155.473C193.602 153.554 194.26 155.584 196.356 154.65L197.239 154.473L197.827 154.65L198.181 155.18L198.417 155.945L198.652 156.888L199.005 157.771L199.535 158.536L200.361 159.066L200.655 157.948L200.477 156.946L200.184 155.945L199.477 154.297L199.3 153.532L199.477 152.882L200.125 152.294C201.193 151.709 203.333 150.498 203.777 149.291L204.13 148.583L204.423 147.878L204.896 146.816L205.131 146.405L205.366 146.05L205.601 145.815L205.837 145.696L206.367 145.403L206.779 145.05L207.014 144.695L207.192 144.283L207.25 143.93V143.695L207.192 143.461V143.4H207.309L207.545 143.461L207.839 143.519H208.312L208.842 143.461L209.37 143.282L210.018 143.047L210.55 142.577L210.135 142.399L209.605 142.164L209.193 141.929L208.842 141.634L208.487 141.399L208.192 141.046V140.279L208.545 139.926H209.077L209.842 139.986L210.667 140.221L211.491 140.396H212.316L213.023 140.103L213.553 139.455C211.167 138.492 209.873 136.903 207.781 135.922L207.427 136.275L207.132 136.452H206.486L206.131 136.334L205.837 136.157L205.426 135.862L205.013 135.509C203.275 134.001 202.67 135.479 201.538 134.332L201.302 134.978V135.862L201.538 136.157L201.715 136.334L202.069 136.452L202.305 136.57L202.54 136.745L202.833 137.1V137.217L202.717 137.158L202.361 137.1L202.008 137.158L201.657 137.453L201.48 137.983V139.103L201.42 139.455L201.302 139.631L201.008 139.808L200.713 139.749L200.361 139.631C198.782 138.61 199.907 138.276 198.181 137.63C196.962 136.973 194.643 137.406 193.647 136.334L193.823 136.04L194.058 135.687L194.471 135.39L194.883 134.978L195.471 134.625L196.119 134.156L196.828 133.684L197.651 133.329C200.376 131.879 203.988 131.563 207.014 131.974C207.014 131.974 206.774 131.86 206.388 131.681C225.009 134.452 242.332 146.158 250.008 166.781Z" fill="white"/>
<path fill-rule="evenodd" clip-rule="evenodd" d="M103.487 171.669H94.8895L96.1834 173.258V185.391L95.8901 186.156L95.5373 186.746C94.7638 187.774 93.2106 188.101 92.0021 188.101L91.1191 188.04L90.3538 187.864L89.5884 187.629L88.9987 187.217L88.5282 186.746L88.1753 186.156L87.8805 185.391V173.258L89.1759 171.669H80.5781L81.8736 173.258C82.6728 184.455 78.2482 192.327 92.0021 192.458C105.912 192.319 101.304 184.63 102.19 173.258L103.487 171.669Z" fill="white"/>
<path fill-rule="evenodd" clip-rule="evenodd" d="M133.284 171.67H126.099L127.337 173.258V183.564L116.971 171.67H110.492L111.788 173.258V190.573L110.492 192.046H117.677L116.441 190.573V180.15L127.454 192.046H131.988V173.258L133.284 171.67Z" fill="white"/>
<path fill-rule="evenodd" clip-rule="evenodd" d="M149.949 192.046L148.712 190.573V173.258L149.949 171.67H141.352L142.647 173.258V190.573L141.352 192.046H149.949Z" fill="white"/>
<path fill-rule="evenodd" clip-rule="evenodd" d="M178.512 171.67H171.21L172.506 173.258L167.38 184.508L162.433 173.258L163.731 171.67H155.133L164.615 192.046H168.853L178.512 171.67Z" fill="white"/>
<path fill-rule="evenodd" clip-rule="evenodd" d="M202.776 192.046V186.569L201.188 187.807H190.824V183.919H197.359L198.89 185.216V178.617L197.359 179.915H190.824V175.969H201.188L202.776 177.264V171.67H183.578L184.874 173.258V190.573L183.578 192.046H202.776Z" fill="white"/>
<path fill-rule="evenodd" clip-rule="evenodd" d="M217.674 181.033V175.969H222.798L223.268 176.144L223.742 176.262C224.585 176.69 224.875 177.411 224.918 178.324C224.67 181.729 219.773 181.128 217.674 181.033ZM231.926 192.046L226.388 184.036C229.132 182.96 231.011 180.988 230.983 177.912L230.925 176.616L230.571 175.498L230.042 174.438L229.275 173.494L228.159 172.79L226.8 172.2L225.154 171.847L223.152 171.67H210.43L211.727 173.258V190.573L210.43 192.046H218.969L217.674 190.573V184.861H220.265L224.155 190.573L222.856 192.046H231.926Z" fill="white"/>
<path fill-rule="evenodd" clip-rule="evenodd" d="M257.783 186.156C257.701 181.664 252.989 180.38 249.478 179.326C248.212 179.212 243.686 177.609 246.24 175.968C248.521 174.734 254.584 176.814 256.724 177.911V171.02L255.073 172.612C250.893 170.954 245.097 170.309 241.235 173.024C240.052 174.009 239.108 175.435 239.231 177.03C238.989 180.91 242.513 182.774 245.65 183.86L246.712 184.213L247.772 184.448L248.713 184.684L249.598 184.98L250.245 185.215L250.774 185.626L251.186 186.039L251.304 186.686C251.283 187.848 249.694 188.246 248.773 188.219C245.44 188.038 242.105 187.01 239.29 185.215V192.753L240.94 190.985C246.191 192.996 257.581 194.529 257.783 186.156Z" fill="white"/>
<path fill-rule="evenodd" clip-rule="evenodd" d="M271.625 184.744L274.982 177.441L278.398 184.744H271.625ZM288.172 192.046L278.162 171.67H271.27L271.977 173.258L262.969 192.046H270.445L269.151 190.573L270.213 188.395H279.869L280.872 190.573L279.575 192.046H288.172Z" fill="white"/>
<path fill-rule="evenodd" clip-rule="evenodd" d="M312.32 192.046V186.569L310.79 187.807H300.955V173.258L302.251 171.67H293.711L295.006 173.258V190.573L293.711 192.046H312.32Z" fill="white"/>
<path fill-rule="evenodd" clip-rule="evenodd" d="M310.495 173.493L310.318 173.318L310.023 173.2L309.786 173.142H309.493L308.961 173.2L308.491 173.493L308.197 174.025L308.078 174.613L308.197 175.201L308.491 175.614L308.961 175.968L309.493 176.086L309.786 175.968H310.023L310.318 175.851L310.495 175.673V175.321L310.318 175.498L310.023 175.673L309.786 175.733L309.493 175.791L309.022 175.673L308.669 175.438L308.313 174.613C308.607 173.305 309.628 173.008 310.495 173.848V173.493Z" fill="white"/>
<path fill-rule="evenodd" clip-rule="evenodd" d="M306.843 174.555C307.004 171.23 311.885 171.228 311.969 174.555C311.917 177.966 306.966 177.957 306.843 174.555ZM306.61 174.555C306.576 178.182 312.096 178.466 312.264 174.555C312.061 170.72 306.614 170.998 306.61 174.555Z" fill="white"/>
</svg>
