<svg fill="none" height="824" viewBox="0 0 824 824" width="824" xmlns="http://www.w3.org/2000/svg" xmlns:xlink="http://www.w3.org/1999/xlink"><linearGradient id="a" gradientUnits="userSpaceOnUse" x1="0" x2="824" y1="0" y2="824"><stop offset="0" stop-color="#9253bd"/><stop offset="1" stop-color="#16c2bf"/></linearGradient><clipPath id="b"><rect height="824" rx="184" width="824"/></clipPath><g clip-path="url(#b)"><rect fill="url(#a)" height="824" rx="184" width="824"/><path d="m612.7 515.35c4.767 0 8.433 2.2 11 6.6 2.933 4.4 4.4 10.45 4.4 18.15 0 14.3-3.483 25.667-10.45 34.1-20.533 24.567-40.517 41.8-59.95 51.7-19.067 9.9-42.167 14.85-69.3 14.85-19.067 0-36.667-2.383-52.8-7.15s-35.75-11.917-58.85-21.45c-20.9-9.167-41.067-16.683-60.5-22.55-18.7 34.1-46.75 51.15-84.15 51.15-20.533 0-36.85-4.583-48.95-13.75-12.467-9.533-18.7-21.633-18.7-36.3 0-17.967 8.617-32.817 25.85-44.55 17.233-12.1 40.15-18.15 68.75-18.15h7.15l9.9-160.05c2.2-36.667 8.8-66.917 19.8-90.75s26.217-44.183 45.65-61.05c16.867-14.667 36.117-25.667 57.75-33 21.633-7.7 44.55-11.55 68.75-11.55 39.6 0 70.033 10.267 91.3 30.8s31.9 47.3 31.9 80.3c0 22.367-4.033 40.517-12.1 54.45-8.067 13.567-19.25 20.35-33.55 20.35-10.267 0-18.333-2.383-24.2-7.15-5.867-5.133-8.8-12.283-8.8-21.45 0-3.3.733-9.35 2.2-18.15 2.2-10.267 3.3-19.433 3.3-27.5 0-15.4-4.583-27.5-13.75-36.3-8.8-9.167-22.367-13.75-40.7-13.75-32.267 0-57.2 10.633-74.8 31.9-17.6 20.9-28.783 53.9-33.55 99l-12.65 124.85c-1.833 17.6-4.217 32.817-7.15 45.65 23.467 4.033 52.8 10.45 88 19.25 20.533 5.133 36.3 8.8 47.3 11s20.717 3.3 29.15 3.3c21.267 0 39.417-3.483 54.45-10.45 15.4-7.333 29.883-18.883 43.45-34.65 4.4-5.133 9.35-7.7 14.85-7.7z" fill="#fff"/></g></svg>