<svg width="824" height="824" viewBox="0 0 824 824" fill="none" xmlns="http://www.w3.org/2000/svg">
<rect width="824" height="824" rx="184" fill="url(#paint0_linear_36_39)"/>
<path d="M441.572 401.072C439.564 389.441 442.78 376.696 446.187 363.219L447.639 357.464C462.542 296.714 379.205 210.366 359.703 207.802C347.893 207.07 346.245 208.718 340.037 217.782C314.933 265.574 340.037 482.523 340.037 482.523C325.266 470.365 305.814 462.895 284.445 462.895C238.461 462.895 201.056 497.192 201.056 539.334C201.056 581.477 238.461 615.774 284.445 615.774C330.428 615.774 367.833 581.477 367.833 539.334C367.833 539.334 356.957 247.446 367.833 243.483C378.71 239.521 430.891 309.024 420.644 350.841L419.246 356.406C415.459 371.376 411.17 388.355 414.183 405.809C418.336 429.764 436.388 449.064 461.306 456.19C464.285 445.748 465.955 439.894 468.934 429.452C451.534 424.485 443.391 411.523 441.572 401.072ZM284.445 587.978C253.791 587.978 228.852 566.153 228.852 539.334C228.852 512.515 253.791 490.691 284.445 490.691C315.105 490.691 340.037 512.515 340.037 539.334C340.037 566.153 315.105 587.978 284.445 587.978Z" fill="white"/>
<path d="M568.321 458.066L559.331 433.692L541.533 438.614L551.806 460.661L568.321 458.066Z" fill="white"/>
<path d="M465.12 442.821L461.306 456.19C496.656 463.049 516.472 464.277 551.806 460.661L541.533 438.614C513.022 439.693 497.132 437.633 468.934 429.452L465.12 442.821Z" fill="white"/>
<path d="M551.421 375.99C526.701 387.526 528.24 404.173 530.821 415.542C532.857 424.514 535.568 429.572 541.533 438.614L559.331 433.692C546.783 410.755 542.575 399.031 559.661 389.998C582.516 377.915 600.474 390.933 599.213 401.072C596.761 420.784 580.342 425.283 559.331 433.692L568.321 458.066C599.418 446.634 609.925 436.966 619.813 410.598C635.657 368.346 571.801 366.479 551.421 375.99Z" fill="white"/>
<path d="M604.157 539.334C608.232 542.992 609.63 543.53 604.157 530.902C590.345 503.739 582.502 488.003 568.321 458.066L551.806 460.661C571.825 494.718 580.653 512.506 604.157 539.334Z" fill="white"/>
<defs>
<linearGradient id="paint0_linear_36_39" x1="0" y1="0" x2="824" y2="824" gradientUnits="userSpaceOnUse">
<stop stop-color="#9253BD"/>
<stop offset="1" stop-color="#16C2BF"/>
</linearGradient>
</defs>
</svg>
