<svg width="412" height="412" viewBox="0 0 412 412" fill="none" xmlns="http://www.w3.org/2000/svg">
<rect width="412" height="412" rx="92" fill="url(#paint0_linear_498_98)"/>
<path d="M305.85 256.675C308.233 256.675 310.067 257.775 311.35 259.975C312.817 262.175 313.55 265.2 313.55 269.05C313.55 276.2 311.808 281.883 308.325 286.1C298.058 298.383 288.067 307 278.35 311.95C268.817 316.9 257.267 319.375 243.7 319.375C234.167 319.375 225.367 318.183 217.3 315.8C209.233 313.417 199.425 309.842 187.875 305.075C177.425 300.492 167.342 296.733 157.625 293.8C148.275 310.85 134.25 319.375 115.55 319.375C105.283 319.375 97.1251 317.083 91.0751 312.5C84.8418 307.733 81.7251 301.683 81.7251 294.35C81.7251 285.367 86.0334 277.942 94.6501 272.075C103.267 266.025 114.725 263 129.025 263H132.6L137.55 182.975C138.65 164.642 141.95 149.517 147.45 137.6C152.95 125.683 160.558 115.508 170.275 107.075C178.708 99.7417 188.333 94.2417 199.15 90.575C209.967 86.725 221.425 84.8 233.525 84.8C253.325 84.8 268.542 89.9333 279.175 100.2C289.808 110.467 295.125 123.85 295.125 140.35C295.125 151.533 293.108 160.608 289.075 167.575C285.042 174.358 279.45 177.75 272.3 177.75C267.167 177.75 263.133 176.558 260.2 174.175C257.267 171.608 255.8 168.033 255.8 163.45C255.8 161.8 256.167 158.775 256.9 154.375C258 149.242 258.55 144.658 258.55 140.625C258.55 132.925 256.258 126.875 251.675 122.475C247.275 117.892 240.492 115.6 231.325 115.6C215.192 115.6 202.725 120.917 193.925 131.55C185.125 142 179.533 158.5 177.15 181.05L170.825 243.475C169.908 252.275 168.717 259.883 167.25 266.3C178.983 268.317 193.65 271.525 211.25 275.925C221.517 278.492 229.4 280.325 234.9 281.425C240.4 282.525 245.258 283.075 249.475 283.075C260.108 283.075 269.183 281.333 276.7 277.85C284.4 274.183 291.642 268.408 298.425 260.525C300.625 257.958 303.1 256.675 305.85 256.675Z" fill="white"/>
<defs>
<linearGradient id="paint0_linear_498_98" x1="0" y1="0" x2="412" y2="412" gradientUnits="userSpaceOnUse">
<stop stop-color="#9253BD"/>
<stop offset="1" stop-color="#16C2BF"/>
</linearGradient>
</defs>
</svg>
