<svg fill="none" height="172" viewBox="0 0 172 172" width="172" xmlns="http://www.w3.org/2000/svg"><path d="m123.121 2.73462c-.343.06559-.682.19724-.992.40418-11.841 7.8932-19.394 21.025-22.9067 28.3027-5.2756-9.4062-11.4018-15.3166-26.8173-15.3166-28.5977 0-40.155 21.7233-40.155 30.7855 0 2.6499 2.0439 5.722 10.8025 6.5928-6.5683 12.7414-13.49 32.0953-13.49 57.1728 0 40.506 16.0642 58.636 31.9823 58.636 4.4182 0 27.6389-2.013 51.1462-41.729 8.157-13.779 14.087-26.551 17.721-38.0558 1.97 1.1395 3.769 1.8477 5.228 1.8477 7.622 0 12.172-9.3161 12.172-24.9224 0-10.715-8.118-34.2026-32.25-34.2026-4.719 0-8.464.5005-11.264 1.0918 3.376-6.8397 10.371-18.7674 20.818-25.73074 1.236-.82238 1.565-2.49056.74-3.72681-.619-.92719-1.706-1.34631-2.735-1.14954zm-50.716 18.76528c14.4937 0 18.6301 5.2791 24.6232 17.3218.0591.1209.1662.1969.2415.3044.1182.1693.222.3457.3779.4882.129.1155.2826.1817.4304.2677.1398.0833.2561.1981.4147.2572.0215.008.0415.0051.063.0105.0672.0242.1453.0206.2152.0367.223.0591.4435.126.6666.126.0376 0 .0726-.0158.1102-.0158.0645-.0026.1245-.0234.189-.0314.258-.0296.5033-.0921.7403-.1943.048-.0215.098-.0152.147-.0367.048-.0242 5.089-2.4093 14.938-2.4093 20.506 0 26.875 21.1306 26.875 28.8276 0 11.5079-2.795 19.5474-6.797 19.5474-3.238 0-14.727-10.6404-23.426-20.5814-.514-.5859-1.258-.9186-2.026-.9186-.14 0-.281.01-.42.0315-.914.1451-1.69.7464-2.053 1.5957-.072.172-7.528 17.1853-21.715 17.1853-9.0407 0-16.125-9.4439-16.125-21.5 0-5.0014.7862-9.0024 2.404-12.2355.465-.9272.3535-2.0384-.2834-2.8554s-1.6765-1.1915-2.7085-.9711c-.1182.0269-11.8284 2.6245-20.9121 2.6245-7.8932 0-10.2343-1.3766-10.7395-1.7689.2849-5.9797 8.7787-25.1061 34.7695-25.1061zm-6.7345 30.4443c-.7847 2.9106-1.1705 6.1756-1.1705 9.8682 0 15.0688 9.4439 26.875 21.5 26.875 13.2037 0 21.346-10.9191 24.781-16.8074 3.73 4.0931 9.559 10.1563 14.996 14.4348-3.445 11.5133-9.376 24.4532-17.71 38.5332-22.4891 37.993-44.1276 39.089-46.5222 39.089-12.814 0-26.6073-16.666-26.6073-53.261 0-25.5425 7.4696-44.8536 14.0674-56.9366 5.8319-.0672 12.3549-1.0265 16.6656-1.7952zm45.2935 33.2631c-1.046.0579-1.999.726-2.377 1.7741-.5 1.3949.224 2.9356 1.621 3.4382l5.055 1.8161c.301.1075.613.1627.914.1627 1.102 0 2.132-.6802 2.53-1.7794.5-1.3948-.225-2.9355-1.622-3.4381l-5.06-1.8214c-.352-.125-.712-.1715-1.061-.1522zm-4.981 12.5241c-1.047-.042-2.069.5354-2.54 1.5433-.632 1.3433-.053 2.9433 1.291 3.5743l4.86 2.289c.371.175.76.257 1.145.257 1.01 0 1.973-.57 2.43-1.543.632-1.344.058-2.943-1.286-3.575l-4.866-2.2883c-.337-.1586-.685-.2432-1.034-.2572zm-6.0678 12.1516c-1.039-.113-2.0961.393-2.6403 1.365-.7202 1.298-.2561 2.935 1.0393 3.658l4.6978 2.614c.411.229.858.336 1.302.336.946 0 1.86-.494 2.351-1.375.721-1.298.256-2.936-1.039-3.659l-4.698-2.614c-.322-.18-.667-.287-1.0128-.325zm-7.8578 11.69c-.6746.133-1.2987.526-1.7112 1.144-.8278 1.233-.4934 2.902.7401 3.727l4.4669 2.986c.4596.307.9774.452 1.4907.452.8681 0 1.7201-.418 2.2361-1.192.828-1.233.4935-2.902-.7401-3.727l-4.4669-2.986c-.6168-.413-1.3411-.538-2.0156-.404zm-7.8211 10.66c-.6866.044-1.3611.345-1.8529.903-.9782 1.113-.8686 2.814.2467 3.795l4.0313 3.548c.5079.452 1.1426.672 1.7742.672.7471 0 1.4887-.306 2.0208-.913.9783-1.113.8686-2.809-.2467-3.79l-4.0312-3.553c-.5536-.491-1.2555-.705-1.9422-.662zm-9.0965 9.16c-.6813-.094-1.3982.071-1.9894.519-1.1798.898-1.4173 2.582-.5197 3.764l3.2492 4.288c.5294.699 1.3325 1.061 2.1468 1.061.5644 0 1.1382-.178 1.622-.546 1.1798-.898 1.412-2.581.5144-3.764l-3.2492-4.288c-.4488-.59-1.0928-.94-1.7741-1.034zm-11.2592 6.015c-.3455-.046-.7003-.023-1.055.074-1.4298.395-2.269 1.872-1.8739 3.301l1.433 5.181c.3305 1.191 1.4106 1.974 2.5877 1.974.2392 0 .4774-.033.7139-.1 1.4297-.395 2.2689-1.872 1.8739-3.302l-1.433-5.186c-.2963-1.072-1.2099-1.804-2.2466-1.942z" fill="#9ca3af"/></svg>