<svg fill="none" height="172" viewBox="0 0 172 172" width="172" xmlns="http://www.w3.org/2000/svg"><path d="m28.3798 13.7598c-8.0737 0-14.62 6.5463-14.62 14.62v115.2402c0 8.073 6.5463 14.62 14.62 14.62h115.2402c8.073 0 14.62-6.547 14.62-14.62v-115.2402c0-8.0737-6.547-14.62-14.62-14.62zm116.1002 6.88c.994.3405 2.784 1.1025 4.407 2.795 2.367 2.4596 2.876 5.3105 3.01 6.3425-12.311 12.3427-24.621 24.6843-36.933 37.027 3.44 13.072 19.263 2.4066 19.263 8.9426 0 15.48-20.64 9.2907-22.36 23.3947-1.032 7.5684-1.031 14.7904-8.943 22.7024-13.0717 13.072-32.712 14.725-50.256-1.787-.0344-.034-.0731-.072-.1075-.141-16.0304-17.441-14.2714-36.8045-1.337-49.7389 7.912-7.912 15.1347-7.9107 22.7027-8.9427 14.104-1.72 7.9079-22.36 23.3879-22.36 6.5359 0-4.1226 15.8227 8.9499 19.2627l.409.4098zm-57.9293 50.1554-5.0928 5.0928 15.0701 15.0971 5.126-5.1197zm-14.4117 14.0355-5.1264 5.1264 15.097 15.0639 5.0928-5.0865z" fill="#9ca3af"/></svg>