<svg fill="none" height="172" viewBox="0 0 172 172" width="172" xmlns="http://www.w3.org/2000/svg"><path d="m24.0806 10.3198c-1.892 0-3.44 1.548-3.44 3.44v144.4802c0 1.892 1.548 3.44 3.44 3.44h123.8404c1.892 0 3.44-1.548 3.44-3.44v-144.4802c0-1.892-1.548-3.44-3.44-3.44zm61.92 17.2c24.6994 0 44.7204 20.0208 44.7204 44.72s-20.021 44.7202-44.7204 44.7202c-24.6992 0-44.72-20.021-44.72-44.7202s20.0208-44.72 44.72-44.72zm0 13.76c-17.058 0-30.96 13.902-30.96 30.96s13.902 30.9602 30.96 30.9602c17.0584 0 30.9604-13.9022 30.9604-30.9602s-13.902-30.96-30.9604-30.96zm0 6.88c13.3398 0 24.0804 10.7403 24.0804 24.08 0 13.3398-10.7406 24.08-24.0804 24.08-13.3397 0-24.08-10.7402-24.08-24.08 0-13.3397 10.7403-24.08 24.08-24.08zm0 17.2c-3.7997 0-6.88 3.0803-6.88 6.88s3.0803 6.88 6.88 6.88 6.88-3.0803 6.88-6.88-3.0803-6.88-6.88-6.88zm-24.08 65.3602h48.1604c1.892 0 3.44 1.548 3.44 3.44v10.32c0 1.892-1.548 3.44-3.44 3.44h-48.1604c-1.892 0-3.44-1.548-3.44-3.44v-10.32c0-1.892 1.548-3.44 3.44-3.44z" fill="#9ca3af"/></svg>