<svg fill="none" height="172" viewBox="0 0 172 172" width="172" xmlns="http://www.w3.org/2000/svg"><path d="m82.7936 33.0374c-7.4532.5568-13.9144 2.2394-20.2666 5.3019-12.3657 5.9555-22.2873 16.7893-27.0303 29.5357-2.4078 6.4518-3.4362 12.1895-3.4362 19.1376-.0121 3.8009.1452 5.7619.7139 9.1392.2783 1.6462 1.1978 5.6282 1.4398 6.1972.0605.158-.0363.218-.5687.327-.3509.073-.8711.145-1.1373.158l-.5082.036 3.3153 7.505c1.827 4.128 3.3273 7.553 3.3515 7.614.0121.048.5687-.049 1.2221-.218.6533-.17 1.2462-.315 1.3309-.315.0726 0 .4598.448.847.993 4.5131 6.282 10.587 11.766 17.3143 15.603 6.2555 3.571 13.4426 5.871 21.0168 6.73 2.5893.291 8.6149.291 11.2042 0 12.6919-1.44 23.7149-6.706 32.5839-15.567 2.359-2.36 4.961-5.471 6.292-7.517l.193-.302 1.319.351c.726.181 1.331.29 1.343.23.024-.049 1.525-3.474 3.352-7.602l3.315-7.505-.508-.036c-.266-.013-.775-.085-1.113-.158l-.63-.121.182-.569c.363-1.186 1.004-4.0185 1.295-5.7374.58-3.3772.726-5.2051.726-9.236s-.146-5.8466-.726-9.2359c-1.61-9.466-5.844-18.4719-12.148-25.8801-1.452-1.6946-4.283-4.5272-5.977-5.9797-8.337-7.1055-18.21-11.3664-29.2933-12.6495-1.6334-.1937-7.5137-.339-9.0141-.23zm8.5302 5.9071c9.6192 1.1621 17.9802 4.6846 25.3482 10.7006 1.767 1.4405 4.743 4.3941 6.256 6.1977 6.279 7.4687 9.909 15.9299 11.119 25.9042.303 2.4573.303 8.0739 0 10.5312-.363 2.9657-1.198 7.2145-1.524 7.7468-.23.363-2.832-1.7065-5.227-4.1759-1.706-1.7673-2.856-3.123-4.586-5.4108-3.013-4.0067-4.731-6.8029-7.55-12.3227-1.138-2.2273-2.517-4.7693-3.061-5.6408-6.837-10.9912-15.8265-16.7531-26.099-16.7531s-19.2624 5.7619-26.0986 16.7531c-.5445.8715-1.9238 3.4135-3.0612 5.6408-1.1373 2.2273-2.5046 4.7572-3.0248 5.6287-3.9929 6.6214-9.1472 12.819-13.007 15.6152-1.2704.9075-1.2825.9075-1.4519.2905-1.9964-7.4202-2.19-15.5667-.5324-23.0354 2.2505-10.1438 7.5501-19.1013 15.3663-25.9648 7.8647-6.9118 17.7258-11.0637 28.2402-11.8748 1.9602-.1452 7.0178-.0484 8.8932.1695zm-3.5694 34.6439c3.2911.9321 7.2839 4.9146 11.3735 11.3543 1.0891 1.7189 2.4681 4.1156 3.8111 6.6092 5.614 10.4461 12.753 18.1931 21.114 22.8781.629.351 1.174.666 1.198.678.181.145-2.638 3.547-4.707 5.665-8.857 9.078-20.4 14.138-33.1526 14.562-13.4788.424-26.5825-4.902-36.0564-14.683-1.8754-1.937-4.7551-5.411-4.5857-5.544.0242-.012.5686-.327 1.1978-.678 8.3608-4.685 15.4995-12.432 21.1136-22.8781 3.6541-6.815 6.6426-11.1969 9.7401-14.2836 2.3473-2.3484 4.4284-3.6073 6.4732-3.922.5566-.0726 1.7424.0363 2.4804.2421z" fill="#9ca3af"/></svg>