<?xml version="1.0" standalone="no"?>
<!DOCTYPE svg PUBLIC "-//W3C//DTD SVG 20010904//EN"
 "http://www.w3.org/TR/2001/REC-SVG-20010904/DTD/svg10.dtd">
<svg version="1.0" xmlns="http://www.w3.org/2000/svg"
 width="700.000000pt" height="700.000000pt" viewBox="0 0 700.000000 700.000000"
 preserveAspectRatio="xMidYMid meet">
<metadata>
Created by potrace 1.14, written by Peter Selinger 2001-2017
</metadata>
<g transform="translate(0.000000,700.000000) scale(0.100000,-0.100000)"
fill="#000000" stroke="none">
<path d="M1387 6990 c-629 -75 -1158 -522 -1325 -1121 -60 -215 -57 -89 -57
-2379 l0 -2105 22 -110 c141 -695 675 -1184 1378 -1265 126 -14 4051 -14 4183
1 482 52 886 295 1149 689 140 209 223 445 252 712 15 138 15 4049 0 4190 -43
400 -244 779 -547 1031 -207 173 -432 280 -708 339 l-109 23 -2085 1 c-1147 1
-2116 -2 -2153 -6z m2873 -1455 c142 -29 285 -87 390 -158 71 -49 174 -159
225 -242 98 -157 136 -306 136 -530 -1 -391 -148 -625 -391 -625 -116 0 -208
48 -251 131 -25 50 -25 148 1 299 22 125 25 250 10 318 -35 150 -149 260 -303
292 -82 16 -260 14 -353 -6 -328 -67 -538 -299 -644 -707 -45 -174 -56 -252
-120 -887 -61 -607 -80 -766 -104 -878 -14 -70 -16 -66 49 -77 88 -14 385 -80
658 -146 475 -114 521 -122 687 -123 328 0 531 85 762 319 57 57 116 108 131
114 69 26 124 3 158 -66 20 -40 24 -63 24 -143 -1 -175 -33 -237 -225 -431
-285 -289 -508 -393 -885 -415 -117 -7 -289 7 -415 32 -109 22 -336 100 -565
194 -245 100 -490 191 -530 196 -28 4 -34 -1 -80 -72 -75 -114 -187 -215 -299
-268 -133 -64 -205 -80 -366 -79 -149 0 -244 19 -341 69 -73 36 -160 122 -195
191 -27 53 -29 67 -29 163 0 97 2 110 32 172 69 146 225 262 426 317 101 28
201 41 306 41 l90 0 5 53 c3 28 24 354 46 722 42 684 56 838 92 1005 47 221
139 434 261 607 80 113 238 271 352 351 205 145 477 246 758 282 101 12 407 3
497 -15z"/>
</g>
</svg>
