<svg fill="none" height="131" viewBox="0 0 241 131" width="241" xmlns="http://www.w3.org/2000/svg" xmlns:xlink="http://www.w3.org/1999/xlink"><linearGradient id="a" gradientUnits="userSpaceOnUse" x1="5" x2="241" y1="2" y2="84.6667"><stop offset="0" stop-color="#16c2bf"/><stop offset="1" stop-color="#9253bd"/></linearGradient><path d="m82.4 62.7c.8667 0 1.5333.4 2 1.2.5333.8.8 1.9.8 3.3 0 2.6-.6333 4.6667-1.9 6.2-3.7333 4.4667-7.3667 7.6-10.9 9.4-3.4667 1.8-7.6667 2.7-12.6 2.7-3.4667 0-6.6667-.4333-9.6-1.3s-6.5-2.1667-10.7-3.9c-3.8-1.6667-7.4667-3.0333-11-4.1-3.4 6.2-8.5 9.3-15.3 9.3-3.73333 0-6.7-.8333-8.9-2.5-2.26667-1.7333-3.4-3.9333-3.4-6.6 0-3.2667 1.56667-5.9667 4.7-8.1 3.13333-2.2 7.3-3.3 12.5-3.3h1.3l1.8-29.1c.4-6.6667 1.6-12.1667 3.6-16.5s4.7667-8.0333 8.3-11.1c3.0667-2.66667 6.5667-4.66667 10.5-6 3.9333-1.400004 8.1-2.100005 12.5-2.100005 7.2 0 12.7333 1.866665 16.6 5.599995 3.8667 3.73334 5.8 8.60001 5.8 14.60001 0 4.0667-.7333 7.3667-2.2 9.9-1.4667 2.4667-3.5 3.7-6.1 3.7-1.8667 0-3.3333-.4333-4.4-1.3-1.0667-.9333-1.6-2.2333-1.6-3.9 0-.6.1333-1.7.4-3.3.4-1.8667.6-3.5333.6-5 0-2.8-.8333-5-2.5-6.6-1.6-1.6667-4.0667-2.5-7.4-2.5-5.8667 0-10.4 1.9333-13.6 5.8-3.2 3.8-5.2333 9.8-6.1 18l-2.3 22.7c-.3333 3.2-.7667 5.9667-1.3 8.3 4.2667.7333 9.6 1.9 16 3.5 3.7333.9333 6.6 1.6 8.6 2s3.7667.6 5.3.6c3.8667 0 7.1667-.6333 9.9-1.9 2.8-1.3333 5.4333-3.4333 7.9-6.3.8-.9333 1.7-1.4 2.7-1.4zm45.885.2c.867 0 1.533.4333 2 1.3.533.8.8 1.8333.8 3.1 0 1.5333-.233 2.7333-.7 3.6s-1.2 1.6333-2.2 2.3l-19.2 12.9c-2.533 13.8-5.867 24.633-9.9998 32.5-4.0667 7.933-9.2667 11.9-15.6 11.9-3.4 0-6.1667-1.067-8.3-3.2-2.1334-2.067-3.2-4.8-3.2-8.2 0-3.133.7-6.333 2.1-9.6 1.4666-3.267 4.1333-7.033 8-11.3 3.9333-4.2 9.4666-9.0333 16.6-14.5l.3-2.3c.4666-2.4667 1-6 1.5998-10.6-1.3332 4.8-3.1998 8.4667-5.5998 11-2.4 2.4667-4.9334 3.7-7.6 3.7-3 0-5.4667-1.3667-7.4-4.1-1.8667-2.8-2.8-6.2667-2.8-10.4 0-5 .3333-9.5667 1-13.7.6666-4.2 1.7666-8.6333 3.3-13.3.6666-2 1.6-3.4333 2.8-4.3s3.1-1.3 5.7-1.3c1.4666 0 2.4666.2333 3 .7.6.4667.9 1.1667.9 2.1 0 .5333-.3667 2.3333-1.1 5.4-.6667 2.4667-1.2 4.7-1.6 6.7-.5334 2.7333-1 5.3667-1.4 7.9-.4 2.4667-.6 4.5-.6 6.1 0 2.5333.7 3.8 2.1 3.8 1 0 2.2333-1 3.7-3 1.5333-2 3.1333-5.0333 4.8-9.1 1.7328-4.0667 3.3998-9.0667 4.9998-15 .533-2 1.333-3.4333 2.4-4.3 1.133-.8667 2.8-1.3 5-1.3 1.533 0 2.6.2 3.2.6s.9 1.0667.9 2c0 1.6667-.867 7.4-2.6 17.2l-2.6 16.1c5.133-3.8667 10.133-7.4 15-10.6.867-.5333 1.633-.8 2.3-.8zm-43.7998 57.9c1.6666 0 3.5333-1.933 5.6-5.8 2.0666-3.867 4.1333-10.3 6.2-19.3-5.1334 4.333-8.8667 8.267-11.2 11.8-2.2667 3.6-3.4 6.733-3.4 9.4 0 1.133.2 2.067.6 2.8.4666.733 1.2 1.1 2.2 1.1zm46.4778-35.3c-2.534 0-4.334-1.3333-5.4-4-1-2.6667-1.5-6.9333-1.5-12.8 0-8.6667 1.233-16.9 3.7-24.7.6-1.9333 1.566-3.3333 2.9-4.2 1.4-.9333 3.333-1.4 5.8-1.4 1.333 0 2.266.1667 2.8.5.533.3333.8.9667.8 1.9 0 1.0667-.5 3.4667-1.5 7.2-.667 2.6667-1.2 5-1.6 7s-.734 4.4667-1 7.4c2.2-5.7333 4.666-10.4 7.4-14 2.733-3.6 5.4-6.1667 8-7.7 2.666-1.5333 5.1-2.3 7.3-2.3 4.333 0 6.5 2.1667 6.5 6.5 0 .8667-.3 2.9667-.9 6.3-.534 2.6667-.8 4.3333-.8 5 0 2.3333.833 3.5 2.5 3.5 1.866 0 4.266-1.4667 7.2-4.4.866-.8667 1.766-1.3 2.7-1.3.866 0 1.533.4 1.999 1.2.534.7333.801 1.7333.801 3 0 2.4667-.667 4.4-2 5.8-1.867 1.9333-4.067 3.6-6.6 5-2.467 1.3333-5.1 2-7.9 2-3.534 0-6.234-.9-8.1-2.7-1.8-1.8-2.7-4.2333-2.7-7.3 0-1 .1-2 .3-3 .133-1.3333.2-2.2333.2-2.7 0-1.0667-.367-1.6-1.1-1.6-1 0-2.334 1.1333-4 3.4-1.6 2.2-3.2 5.1333-4.8 8.8s-2.9 7.5333-3.9 11.6c-.734 3.1333-1.6 5.2667-2.6 6.4-.934 1.0667-2.434 1.6-4.5 1.6zm57.507 0c-6.533 0-11.633-1.8333-15.3-5.5-3.6-3.7333-5.4-8.6333-5.4-14.7 0-5.4 1.067-10.1333 3.2-14.2 2.134-4.0667 4.9-7.2 8.3-9.4s6.967-3.3 10.7-3.3c3.667 0 6.5 1.1 8.5 3.3 2.067 2.1333 3.1 4.9 3.1 8.3 0 2.8-.633 5.1667-1.9 7.1-1.2 1.9333-2.8 2.9-4.8 2.9-1.266 0-2.3-.3-3.1-.9-.733-.6-1.1-1.4333-1.1-2.5 0-.4667.067-1 .2-1.6.134-.6.234-1.0333.3-1.3.334-1 .5-1.9333.5-2.8s-.233-1.5333-.7-2c-.4-.4667-1-.7-1.8-.7-1.533 0-2.966.7-4.3 2.1-1.333 1.3333-2.4 3.1667-3.2 5.5s-1.2 4.9-1.2 7.7c0 7.7333 3.367 11.6 10.1 11.6 2.734 0 5.667-.9 8.8-2.7 3.2-1.8667 6.334-4.6333 9.4-8.3.8-.9333 1.7-1.4 2.7-1.4.867 0 1.534.4 2 1.2.534.8.8 1.9.8 3.3 0 2.5333-.633 4.6-1.9 6.2-3.133 3.8667-6.9 6.8667-11.3 9-4.333 2.0667-8.533 3.1-12.6 3.1zm36.317 2.2c-3.467 0-6.134-.8-8-2.4-1.8-1.6-2.7-3.4-2.7-5.4 0-1.7333.633-3.2333 1.9-4.5 1.266-1.2667 3.133-1.9 5.6-1.9.866 0 1.866.1 3 .3 1.2.1333 2.1.2333 2.7.3-.067-1.7333-.467-3.3667-1.2-4.9-.667-1.5333-1.534-3-2.6-4.4-1.067-1.4667-2.067-2.7333-3-3.8-2.067 3.9333-4.134 7.2-6.2 9.8-2 2.6-4.2 5.0667-6.6 7.4-1.2 1.2-2.467 1.8-3.8 1.8-1.067 0-1.934-.3667-2.6-1.1-.667-.8-1-1.7667-1-2.9 0-1.3333.466-2.5667 1.4-3.7l1.3-1.6c3.666-4.5333 6.433-8.2667 8.3-11.2 1.2-1.9333 2.4-4.2333 3.6-6.9 1.266-2.6667 2.9-6.3 4.9-10.9 1.266-2.9333 3.9-4.4 7.9-4.4 1.866 0 3.166.1667 3.9.5.733.3333 1.1.8667 1.1 1.6 0 .4-.134 1.0333-.4 1.9-.267.8667-.634 1.7333-1.1 2.6-1.2 2.4-1.8 4.4333-1.8 6.1 0 1 .333 2.1 1 3.3.733 1.2 1.833 2.7 3.3 4.5 2.133 2.8 3.733 5.2 4.8 7.2 1.133 1.9333 1.7 4.0667 1.7 6.4 0 2.8-.667 5.4667-2 8-1.267 2.4667-3.067 4.4667-5.4 6-2.334 1.5333-5 2.3-8 2.3z" fill="url(#a)"/></svg>